<svg xmlns="http://www.w3.org/2000/svg" width="25" height="25" viewBox="0 0 25 25" fill="none">
          <path d="M3.30901 24.998H2.9076C2.13597 24.9966 1.39642 24.6874 0.851296 24.1384C0.306168 23.5894 -1.29103e-06 22.8454 0 22.0697V2.92834C-1.29103e-06 2.15262 0.306168 1.4086 0.851296 0.859587C1.39642 0.310571 2.13597 0.00141899 2.9076 0H3.30901C4.08064 0.00141899 4.8202 0.310571 5.36533 0.859587C5.91045 1.4086 6.21661 2.15262 6.21661 2.92834V22.0697C6.21661 22.8454 5.91045 23.5894 5.36533 24.1384C4.8202 24.6874 4.08064 24.9966 3.30901 24.998Z" fill="#2255FF"/>
          <path d="M24.8673 2.92298V3.32652C24.8668 4.10159 24.5603 4.84479 24.0151 5.39286C23.47 5.94092 22.7307 6.24903 21.9597 6.2495H2.95462C2.18424 6.24808 1.44587 5.93956 0.90146 5.3916C0.35705 4.84364 0.0510405 4.10098 0.0505714 3.32652V2.92298C0.051042 2.1479 0.357529 1.40471 0.902707 0.856644C1.44789 0.308582 2.18717 0.000473041 2.95817 0H21.9632C22.7336 0.00141828 23.472 0.309937 24.0164 0.857898C24.5608 1.40586 24.8668 2.14852 24.8673 2.92298Z" fill="#2255FF"/>
          <path d="M15.7426 24.9972H15.3412C14.5702 24.9967 13.8309 24.6886 13.2857 24.1406C12.7406 23.5925 12.4341 22.8493 12.4336 22.0742V15.423C12.4341 14.6479 12.7406 13.9047 13.2857 13.3566C13.8309 12.8086 14.5702 12.5005 15.3412 12.5H15.7426C16.5136 12.5005 17.2529 12.8086 17.7981 13.3566C18.3432 13.9047 18.6497 14.6479 18.6502 15.423V22.1242C18.6394 22.8915 18.3281 23.6235 17.7837 24.1614C17.2393 24.6993 16.5059 24.9996 15.7426 24.9972Z" fill="#1199F3"/>
          <path d="M24.8675 15.4042V15.8078C24.867 16.5828 24.5605 17.326 24.0154 17.8741C23.4702 18.4222 22.7309 18.7303 21.9599 18.7308H15.3881C14.6171 18.7303 13.8778 18.4222 13.3326 17.8741C12.7874 17.326 12.4809 16.5828 12.4805 15.8078V15.4042C12.4809 14.6292 12.7874 13.886 13.3326 13.3379C13.8778 12.7898 14.6171 12.4817 15.3881 12.4813H21.9599C22.3442 12.4722 22.7263 12.5416 23.0831 12.6853C23.44 12.829 23.7641 13.044 24.0359 13.3172C24.3077 13.5905 24.5216 13.9163 24.6645 14.2751C24.8074 14.6338 24.8765 15.0179 24.8675 15.4042Z" fill="#1199F3"/>
</svg>